<svg width="180" height="180" viewBox="0 0 180 180" fill="none" xmlns="http://www.w3.org/2000/svg">
<rect width="180" height="180" fill="black"/>
<path d="M60.206 120H38.7003V61.8182H60.1776C66.1056 61.8182 71.2098 62.9829 75.4901 65.3125C79.7893 67.6231 83.1037 70.9564 85.4332 75.3125C87.7628 79.6496 88.9276 84.839 88.9276 90.8807C88.9276 96.9413 87.7628 102.15 85.4332 106.506C83.1226 110.862 79.8177 114.205 75.5185 116.534C71.2192 118.845 66.1151 120 60.206 120ZM52.7628 108.011H59.6662C62.9238 108.011 65.6795 107.462 67.9332 106.364C70.206 105.246 71.92 103.437 73.0753 100.937C74.2495 98.4186 74.8366 95.0663 74.8366 90.8807C74.8366 86.6951 74.2495 83.3617 73.0753 80.8807C71.901 78.3807 70.1681 76.5814 67.8764 75.483C65.6037 74.3655 62.8007 73.8068 59.4673 73.8068H52.7628V108.011Z" fill="white"/>
<path d="M97.1378 61.8182V120H111.2V100.085H118.403L129.041 120H144.382L132.322 97.8655C135.526 96.3894 138.003 94.26 139.751 91.4773C141.513 88.6553 142.393 85.2273 142.393 81.1932C142.393 77.2159 141.532 73.7784 139.808 70.8807C138.085 67.964 135.632 65.7292 132.45 64.1761C129.287 62.6042 125.528 61.8182 121.172 61.8182H97.1378ZM111.2 89.0057V73.1534H118.132C120.234 73.1534 122.005 73.4564 123.445 74.0625C124.884 74.6496 125.973 75.5398 126.712 76.733C127.45 77.9072 127.82 79.3939 127.82 81.1932C127.82 82.9924 127.45 84.4697 126.712 85.625C125.973 86.7614 124.884 87.6136 123.445 88.1818C122.024 88.7311 120.253 89.0057 118.132 89.0057H111.2Z" fill="white"/>
</svg>
